<svg xmlns="http://www.w3.org/2000/svg" width="26" height="26" viewBox="0 0 8 13" shape-rendering="crispEdges"><path fill="#000" d="M0 0h1v1h-1zM1 0h1v1h-1zM0 1h1v1h-1zM2 1h1v1h-1zM0 2h1v1h-1zM3 2h1v1h-1zM0 3h1v1h-1zM4 3h1v1h-1zM0 4h1v1h-1zM5 4h1v1h-1zM0 5h1v1h-1zM6 5h1v1h-1zM0 6h1v1h-1zM7 6h1v1h-1zM0 7h1v1h-1zM6 7h1v1h-1zM0 8h1v1h-1zM5 8h1v1h-1zM0 9h1v1h-1zM4 9h1v1h-1zM0 10h1v1h-1zM3 10h1v1h-1zM0 11h1v1h-1zM2 11h1v1h-1zM0 12h1v1h-1zM1 12h1v1h-1z"/><path fill="#ffe95c" d="M1 1h1v1h-1zM1 2h1v1h-1zM2 2h1v1h-1zM1 3h1v1h-1zM2 3h1v1h-1zM3 3h1v1h-1zM1 4h1v1h-1zM2 4h1v1h-1zM3 4h1v1h-1zM4 4h1v1h-1zM1 5h1v1h-1zM2 5h1v1h-1zM3 5h1v1h-1zM4 5h1v1h-1zM5 5h1v1h-1zM1 6h1v1h-1zM2 6h1v1h-1zM3 6h1v1h-1zM4 6h1v1h-1zM5 6h1v1h-1zM6 6h1v1h-1zM1 7h1v1h-1zM2 7h1v1h-1zM3 7h1v1h-1zM4 7h1v1h-1zM5 7h1v1h-1zM1 8h1v1h-1zM2 8h1v1h-1zM3 8h1v1h-1zM4 8h1v1h-1zM1 9h1v1h-1zM2 9h1v1h-1zM3 9h1v1h-1zM1 10h1v1h-1zM2 10h1v1h-1zM1 11h1v1h-1z"/></svg>