<svg xmlns="http://www.w3.org/2000/svg" viewBox="0 0 24 16" shape-rendering="crispEdges">
  <rect x="7" y="0" width="15" height="1" fill="#101020"/>
  <rect x="6" y="1" width="1" height="1" fill="#101020"/>
  <rect x="7" y="1" width="14" height="1" fill="#ffffff"/>
  <rect x="21" y="1" width="1" height="1" fill="#101020"/>
  <rect x="6" y="2" width="1" height="1" fill="#101020"/>
  <rect x="7" y="2" width="15" height="1" fill="#ffffff"/>
  <rect x="22" y="2" width="1" height="1" fill="#101020"/>
  <rect x="6" y="3" width="1" height="1" fill="#101020"/>
  <rect x="7" y="3" width="14" height="1" fill="#ffffff"/>
  <rect x="21" y="3" width="1" height="1" fill="#101020"/>
  <rect x="5" y="4" width="1" height="1" fill="#101020"/>
  <rect x="6" y="4" width="8" height="1" fill="#ffffff"/>
  <rect x="14" y="4" width="7" height="1" fill="#101020"/>
  <rect x="5" y="5" width="1" height="1" fill="#101020"/>
  <rect x="6" y="5" width="8" height="1" fill="#ffffff"/>
  <rect x="14" y="5" width="1" height="1" fill="#101020"/>
  <rect x="5" y="6" width="1" height="1" fill="#101020"/>
  <rect x="6" y="6" width="9" height="1" fill="#ffffff"/>
  <rect x="15" y="6" width="1" height="1" fill="#101020"/>
  <rect x="5" y="7" width="1" height="1" fill="#101020"/>
  <rect x="6" y="7" width="6" height="1" fill="#ffffff"/>
  <rect x="12" y="7" width="4" height="1" fill="#101020"/>
  <rect x="5" y="8" width="1" height="1" fill="#101020"/>
  <rect x="6" y="8" width="9" height="1" fill="#ffffff"/>
  <rect x="15" y="8" width="1" height="1" fill="#101020"/>
  <rect x="5" y="9" width="1" height="1" fill="#101020"/>
  <rect x="6" y="9" width="9" height="1" fill="#ffffff"/>
  <rect x="15" y="9" width="1" height="1" fill="#101020"/>
  <rect x="5" y="10" width="1" height="1" fill="#101020"/>
  <rect x="6" y="10" width="6" height="1" fill="#ffffff"/>
  <rect x="12" y="10" width="4" height="1" fill="#101020"/>
  <rect x="5" y="11" width="1" height="1" fill="#101020"/>
  <rect x="6" y="11" width="8" height="1" fill="#ffffff"/>
  <rect x="14" y="11" width="1" height="1" fill="#101020"/>
  <rect x="2" y="12" width="4" height="1" fill="#101020"/>
  <rect x="6" y="12" width="7" height="1" fill="#ffffff"/>
  <rect x="13" y="12" width="1" height="1" fill="#101020"/>
  <rect x="1" y="13" width="1" height="1" fill="#101020"/>
  <rect x="2" y="13" width="3" height="1" fill="#b9bfe0"/>
  <rect x="5" y="13" width="1" height="1" fill="#101020"/>
  <rect x="6" y="13" width="6" height="1" fill="#b9bfe0"/>
  <rect x="12" y="13" width="1" height="1" fill="#101020"/>
  <rect x="0" y="14" width="1" height="1" fill="#101020"/>
  <rect x="1" y="14" width="5" height="1" fill="#b9bfe0"/>
  <rect x="6" y="14" width="6" height="1" fill="#101020"/>
  <rect x="0" y="15" width="7" height="1" fill="#101020"/>
</svg>
