<svg xmlns="http://www.w3.org/2000/svg" width="48" height="48" viewBox="0 0 48 48">
  <!-- Royal Violet: regal violet enamel border -->
  <defs>
    <linearGradient id="bg_11" x1="0" y1="0" x2="1" y2="1">
      <stop offset="0%" stop-color="#11071a"/>
      <stop offset="100%" stop-color="#2f1346"/>
    </linearGradient>
    <linearGradient id="bd_11" x1="0" y1="0" x2="1" y2="1">
      <stop offset="0%" stop-color="#f0c2ff"/>
      <stop offset="100%" stop-color="#9658cc"/>
    </linearGradient>
  </defs>

  <rect width="48" height="48" rx="2" fill="url(#bg_11)"/>
  <rect x="1.5" y="1.5" width="45" height="45" rx="2" fill="none" stroke="url(#bd_11)" stroke-width="2"/>
  <rect x="4.5" y="4.5" width="39" height="39" rx="1" fill="none" stroke="#66358e" stroke-width="1"/>
  <rect x="6" y="6" width="36" height="36" rx="1" fill="#100718"/>
  <path d="M18 2.5 L24 6.5 L30 2.5" fill="none" stroke="#f7ddff" stroke-width="1"/>
  <path d="M18 45.5 L24 41.5 L30 45.5" fill="none" stroke="#be80ef" stroke-width="1"/>
  <path d="M2.5 18 L6.5 24 L2.5 30" fill="none" stroke="#f7ddff" stroke-width="1"/>
  <path d="M45.5 18 L41.5 24 L45.5 30" fill="none" stroke="#be80ef" stroke-width="1"/>

  <circle cx="4" cy="4" r="3" fill="#f7ddff" opacity="0.95"/>
  <circle cx="44" cy="4" r="3" fill="#be80ef" opacity="0.95"/>
  <circle cx="4" cy="44" r="3" fill="#be80ef" opacity="0.95"/>
  <circle cx="44" cy="44" r="3" fill="#f7ddff" opacity="0.95"/>
</svg>
